<svg width="25" height="24" viewBox="0 0 25 24" fill="none" xmlns="http://www.w3.org/2000/svg">
<g clip-path="url(#clip0_6930_676)">
<path d="M12.3333 7.17208C11.3784 7.17208 10.445 7.45524 9.65104 7.98574C8.85708 8.51625 8.23826 9.27028 7.87284 10.1525C7.50742 11.0347 7.41181 12.0054 7.5981 12.942C7.78439 13.8785 8.24421 14.7388 8.91942 15.414C9.59463 16.0892 10.4549 16.549 11.3914 16.7353C12.328 16.9216 13.2987 16.826 14.1809 16.4606C15.0631 16.0951 15.8171 15.4763 16.3476 14.6824C16.8782 13.8884 17.1613 12.955 17.1613 12.0001C17.1599 10.7201 16.6507 9.49287 15.7456 8.58776C14.8405 7.68265 13.6133 7.17353 12.3333 7.17208V7.17208ZM12.3333 15.5686C11.6275 15.5686 10.9376 15.3593 10.3508 14.9672C9.76392 14.5751 9.30654 14.0177 9.03645 13.3657C8.76635 12.7136 8.69568 11.9961 8.83338 11.3039C8.97107 10.6117 9.31094 9.97582 9.81 9.47675C10.3091 8.97768 10.9449 8.63782 11.6371 8.50012C12.3294 8.36243 13.0469 8.4331 13.6989 8.70319C14.351 8.97329 14.9083 9.43067 15.3004 10.0175C15.6925 10.6043 15.9018 11.2943 15.9018 12.0001C15.9008 12.9462 15.5244 13.8532 14.8554 14.5222C14.1865 15.1912 13.2794 15.5675 12.3333 15.5686V15.5686ZM16.9514 1.71436H7.71525C6.21262 1.71608 4.77204 2.31376 3.70952 3.37627C2.64701 4.43879 2.04933 5.87937 2.04761 7.38199V16.6181C2.04933 18.1208 2.64701 19.5614 3.70952 20.6239C4.77204 21.6864 6.21262 22.2841 7.71525 22.2858H16.9514C18.454 22.2841 19.8946 21.6864 20.9571 20.6239C22.0196 19.5614 22.6173 18.1208 22.619 16.6181V7.38199C22.6173 5.87937 22.0196 4.43879 20.9571 3.37627C19.8946 2.31376 18.454 1.71608 16.9514 1.71436ZM21.3596 16.6181C21.3583 17.7869 20.8934 18.9073 20.067 19.7337C19.2406 20.5602 18.1201 21.025 16.9514 21.0263H7.71525C6.54653 21.025 5.42605 20.5602 4.59965 19.7337C3.77324 18.9073 3.30839 17.7869 3.30708 16.6181V7.38199C3.30839 6.21328 3.77324 5.0928 4.59965 4.26639C5.42605 3.43999 6.54653 2.97514 7.71525 2.97383H16.9514C18.1201 2.97514 19.2406 3.43999 20.067 4.26639C20.8934 5.0928 21.3583 6.21328 21.3596 7.38199V16.6181ZM18.8406 6.54234C18.8406 6.74993 18.7791 6.95285 18.6637 7.12545C18.5484 7.29805 18.3845 7.43257 18.1927 7.51201C18.0009 7.59145 17.7899 7.61224 17.5863 7.57174C17.3827 7.53124 17.1957 7.43128 17.0489 7.2845C16.9021 7.13771 16.8022 6.9507 16.7617 6.7471C16.7212 6.54351 16.7419 6.33248 16.8214 6.14069C16.9008 5.94891 17.0353 5.78499 17.2079 5.66966C17.3805 5.55434 17.5835 5.49278 17.791 5.49278C18.0693 5.49311 18.3361 5.6038 18.5328 5.80056C18.7296 5.99732 18.8403 6.26408 18.8406 6.54234V6.54234Z" fill="white"/>
</g>
<defs>
<clipPath id="clip0_6930_676">
<rect width="20.5714" height="20.5714" fill="white" transform="translate(2.04761 1.71436)"/>
</clipPath>
</defs>
</svg>
