<svg width="21" height="22" viewBox="0 0 21 22" fill="none" xmlns="http://www.w3.org/2000/svg">
<g clip-path="url(#clip0_9180_223)">
<path d="M19.7962 0.714355H0.870465C0.415322 0.714355 0.0476074 1.08207 0.0476074 1.53721V20.4629C0.0476074 20.9181 0.415322 21.2858 0.870465 21.2858H19.7962C20.2513 21.2858 20.619 20.9181 20.619 20.4629V1.53721C20.619 1.08207 20.2513 0.714355 19.7962 0.714355ZM6.14961 18.2438H3.09732V8.42607H6.14961V18.2438ZM4.62475 7.08378C4.27485 7.08378 3.9328 6.98003 3.64187 6.78563C3.35093 6.59123 3.12418 6.31493 2.99028 5.99166C2.85637 5.66839 2.82134 5.31268 2.8896 4.9695C2.95786 4.62632 3.12636 4.31109 3.37378 4.06367C3.6212 3.81625 3.93643 3.64775 4.27961 3.57949C4.62279 3.51123 4.9785 3.54626 5.30177 3.68017C5.62504 3.81407 5.90134 4.04082 6.09574 4.33176C6.29013 4.62269 6.39389 4.96474 6.39389 5.31464C6.39132 6.29178 5.59932 7.08378 4.62475 7.08378ZM17.577 18.2438H14.5273V13.4686C14.5273 12.3295 14.5068 10.8664 12.9408 10.8664C11.3542 10.8664 11.1099 12.1058 11.1099 13.3864V18.2438H8.06275V8.42607H10.989V9.76836H11.0302C11.4365 8.99693 12.4316 8.18178 13.9179 8.18178C17.0088 8.18178 17.577 10.2158 17.577 12.8592V18.2438V18.2438Z" fill="white"/>
</g>
<defs>
<clipPath id="clip0_9180_223">
<rect width="20.5714" height="20.5714" fill="white" transform="translate(0.0476074 0.714355)"/>
</clipPath>
</defs>
</svg>
