<svg width="24" height="25" viewBox="0 0 24 25" fill="none" xmlns="http://www.w3.org/2000/svg">
<g clip-path="url(#clip0_9131_226)">
<path d="M6.78566 7.62782C6.78566 4.94407 9.09942 2.71429 11.9999 2.71429C14.9005 2.71429 17.2142 4.94407 17.2142 7.62782C17.2142 10.3116 14.9005 12.5414 11.9999 12.5414C9.09942 12.5414 6.78566 10.3116 6.78566 7.62782ZM8.07138 7.62782C8.07138 9.71989 9.85934 11.3759 11.9999 11.3759C14.1406 11.3759 15.9285 9.71989 15.9285 7.62782C15.9285 5.53575 14.1406 3.8797 11.9999 3.8797C9.85934 3.8797 8.07138 5.53575 8.07138 7.62782ZM21.7857 21.703V22.2857H20.4999V21.703C20.4999 18.4167 17.6868 15.7895 14.2857 15.7895H9.71423C6.31305 15.7895 3.49995 18.4167 3.49995 21.703V22.2857H2.21423V21.703C2.21423 17.8261 5.55318 14.6241 9.71423 14.6241H14.2857C18.4456 14.6241 21.7857 17.8261 21.7857 21.703Z" fill="white" stroke="white"/>
</g>
<defs>
<clipPath id="clip0_9131_226">
<rect width="20.5714" height="20.5714" fill="white" transform="translate(1.71423 2.21429)"/>
</clipPath>
</defs>
</svg>
