<svg width="24" height="24" viewBox="0 0 24 24" fill="none" xmlns="http://www.w3.org/2000/svg">
<g clip-path="url(#clip0_6939_1128)">
<path d="M6.78566 7.12789C6.78566 4.44414 9.09942 2.21436 11.9999 2.21436C14.9005 2.21436 17.2142 4.44414 17.2142 7.12789C17.2142 9.81164 14.9005 12.0414 11.9999 12.0414C9.09942 12.0414 6.78566 9.81164 6.78566 7.12789ZM8.07138 7.12789C8.07138 9.21996 9.85934 10.876 11.9999 10.876C14.1406 10.876 15.9285 9.21996 15.9285 7.12789C15.9285 5.03582 14.1406 3.37977 11.9999 3.37977C9.85934 3.37977 8.07138 5.03582 8.07138 7.12789ZM21.7857 21.2031V21.7858H20.4999V21.2031C20.4999 17.9168 17.6868 15.2895 14.2857 15.2895H9.71423C6.31305 15.2895 3.49995 17.9168 3.49995 21.2031V21.7858H2.21423V21.2031C2.21423 17.3261 5.55318 14.1241 9.71423 14.1241H14.2857C18.4456 14.1241 21.7857 17.3262 21.7857 21.2031Z" fill="#344FF4" stroke="#344FF4"/>
</g>
<defs>
<clipPath id="clip0_6939_1128">
<rect width="20.5714" height="20.5714" fill="white" transform="translate(1.71423 1.71436)"/>
</clipPath>
</defs>
</svg>
