<svg width="25" height="24" viewBox="0 0 25 24" fill="none" xmlns="http://www.w3.org/2000/svg">
<g clip-path="url(#clip0_6930_679)">
<path d="M22.1905 7.29178C22.074 6.87626 21.8471 6.50008 21.5339 6.20321C21.2119 5.89721 20.8172 5.67832 20.3871 5.56721C18.7774 5.14292 12.3282 5.14292 12.3282 5.14292C9.63965 5.11233 6.95173 5.24687 4.27965 5.54578C3.84953 5.6651 3.45556 5.88888 3.13279 6.19721C2.81565 6.50235 2.58593 6.87864 2.46593 7.29092C2.17767 8.84385 2.03761 10.4206 2.04765 12.0001C2.03736 13.5781 2.17708 15.1543 2.46593 16.7092C2.58336 17.1198 2.81222 17.4943 3.13022 17.7969C3.44822 18.0995 3.84422 18.3181 4.27965 18.4338C5.91079 18.8572 12.3282 18.8572 12.3282 18.8572C15.0202 18.8878 17.7116 18.7533 20.3871 18.4543C20.8172 18.3432 21.2119 18.1243 21.5339 17.8183C21.8511 17.5158 22.0765 17.1395 22.1896 16.7298C22.4854 15.1775 22.6293 13.6 22.6191 12.0198C22.6413 10.4329 22.4977 8.84798 22.1905 7.29092V7.29178ZM10.2779 14.9349V9.06606L15.6436 12.0009L10.2779 14.9349Z" fill="white"/>
</g>
<defs>
<clipPath id="clip0_6930_679">
<rect width="20.5714" height="20.5714" fill="white" transform="translate(2.04761 1.71436)"/>
</clipPath>
</defs>
</svg>
